<?xml version="1.0" encoding="UTF-8" standalone="no"?>
<!-- Created with Inkscape (http://www.inkscape.org/) -->

<svg
   width="500"
   height="500"
   viewBox="0 0 132.29167 132.29167"
   version="1.1"
   id="svg17208"
   sodipodi:docname="small-logo.svg"
   inkscape:version="1.2.2 (b0a8486541, 2022-12-01)"
   inkscape:export-filename="small-logo-avatar.png"
   inkscape:export-xdpi="96"
   inkscape:export-ydpi="96"
   xmlns:inkscape="http://www.inkscape.org/namespaces/inkscape"
   xmlns:sodipodi="http://sodipodi.sourceforge.net/DTD/sodipodi-0.dtd"
   xmlns="http://www.w3.org/2000/svg"
   xmlns:svg="http://www.w3.org/2000/svg">
  <sodipodi:namedview
     id="namedview17210"
     pagecolor="#ffffff"
     bordercolor="#000000"
     borderopacity="0.25"
     inkscape:showpageshadow="2"
     inkscape:pageopacity="0.0"
     inkscape:pagecheckerboard="0"
     inkscape:deskcolor="#d1d1d1"
     inkscape:document-units="px"
     showgrid="false"
     inkscape:zoom="1.2938725"
     inkscape:cx="-125.97841"
     inkscape:cy="159.59842"
     inkscape:window-width="3774"
     inkscape:window-height="2091"
     inkscape:window-x="66"
     inkscape:window-y="32"
     inkscape:window-maximized="1"
     inkscape:current-layer="layer1" />
  <defs
     id="defs17205" />
  <g
     inkscape:label="Layer 1"
     inkscape:groupmode="layer"
     id="layer1"
     transform="translate(-45.11467,-105.29967)">
    <g
       id="g7828-6-4"
       transform="matrix(1.6379612,0,0,1.6379612,-159.70967,-198.91918)">
      <g
         id="g10378-7-2-3"
         transform="rotate(15,-238.64615,380.01834)">
        <g
           id="g9516-8-1-3" />
        <path
           id="rect1006-7-1-7-3"
           transform="rotate(-15)"
           d="m 37.350291,114.53895 0.531591,-0.13062 0.86747,0.0732 0.438256,-0.0566 0.647272,-0.041 0.675426,-0.002 0.693385,0.0323 0.561146,-0.0772 0.774692,0.0509 0.560572,0.001 0.690949,0.0325 0.60808,0.004 0.648802,0.004 0.60464,-0.14047 0.645225,-0.0861 0.76646,0.0284 0.567035,0.007 0.6487,0.008 0.653985,0.0134 0.899373,0.0839 0.385082,-0.15013 0.661843,0.016 0.634482,0.011 0.78717,0.0891 0.498347,-0.0146 0.64817,-0.007 0.633095,-0.0329 0.63386,-0.0369 0.677888,-0.0742 0.627084,-0.0148 0.656704,-0.002 0.646566,-0.10794 0.816329,0.0881 0.516267,0.0369 0.677499,0.0607 0.742371,0.0591 0.441549,-0.0809 0.743118,0.0389 0.581225,-0.15969 0.675663,0.0215 0.751764,0.04 0.491532,-0.0428 0.753631,0.0657 0.549232,-0.0275 0.662263,-0.006 0.620573,-0.14067 0.654263,-0.0587 0.65039,-0.11143 0.677631,-0.0745 0.678744,-0.14543 0.638443,-0.059 0.639989,0.0199 0.880969,0.11511 0.500281,0.048 0.568781,-0.18143 0.62767,0.007 0.699901,0.0603 0.589027,0.005 0.775493,0.0753 0.523908,0.0128 0.775551,0.0717 0.508514,0.004 0.618529,-0.0488 0.750095,0.0587 0.594618,0.0313 0.667175,0.0506 0.671525,0.0701 0.730887,0.0904 0.463432,-0.10751 0.692344,0.0275 0.602276,-0.0518 0.846463,0.0778 0.632039,0.0991 0.503963,-0.0571 0.617408,-0.009 0.759001,0.045 0.539758,-0.008 0.686068,-0.13333 0.630036,0.0228 0.688005,0.0507 0.586065,-0.0382 0.635041,-0.0292 0.830755,0.1102 0.466781,-0.0226 0.638704,-0.0174 0.669762,0.0152 0.65576,0.0189 0.690327,0.0361 0.556203,-0.0981 0.700327,-0.0356 0.8068,0.11131 0.499591,-0.12253 0.630118,0.003 0.644199,0.0245 0.80914,0.11985 0.45704,-0.0126 0.784614,0.10372 0.510019,-0.003 0.67908,-0.14942 0.59652,-0.048 0.88969,0.10424 0.55999,0.0852 0.55176,0.044 0.67176,0.0534 0.61787,0.047 0.62271,0.0244 0.79233,0.0869 0.63575,0.0774 0.6713,0.0499 0.70947,0.083 0.47046,0.036 0.62759,0.002 0.60471,-0.0482 0.64445,-0.0711 0.71668,0.0411 0.60061,-0.0538 -0.023,0.54332 -0.003,0.73841 -0.002,0.65461 -0.022,0.58618 3.2e-4,0.71011 0.0179,0.662 -0.0222,0.60262 0.047,0.71618 0.0482,0.65049 0.0878,0.67074 -0.002,0.57601 0.22031,0.72746 0.0268,0.59515 -0.0214,0.59582 -0.009,0.66464 -0.005,0.6506 0.0148,0.66746 -0.01,0.61709 -0.005,0.62981 -0.0224,0.59253 0.004,0.73177 -0.0109,0.63371 -0.0179,0.60562 -0.0171,0.67935 0.16674,0.72639 -0.007,0.55828 0.076,0.74061 -0.0418,0.48189 0.17891,0.84373 3.6e-4,0.55468 -0.008,0.64247 0.004,0.65167 -0.009,0.63982 0.0171,0.67374 -0.004,0.62592 0.0376,0.44772 -0.01,0.84377 -0.0458,0.58349 0.0147,0.73026 0.0735,0.67957 -0.0243,0.57384 -0.0161,0.62302 -0.009,0.62042 -0.0394,0.67052 0.0884,0.7318 0.003,0.61333 0.0314,0.67866 0.17502,0.69327 -0.0419,0.52073 -0.0175,0.68665 0.0285,0.67138 0.0576,0.66807 0.20276,0.68045 0.12008,0.66899 0.0411,0.62003 0.0994,0.68181 -0.0561,0.52785 0.10691,0.73852 -0.0588,0.50332 -0.0602,0.69662 0.0105,0.7046 0.12299,0.68687 -0.0343,0.59063 -0.0124,0.67986 -0.0462,0.47047 -0.0362,0.80071 0.006,0.68048 0.005,0.6459 -0.0583,0.57234 -0.0119,0.70497 -0.0313,0.62559 0.0266,0.69293 0.083,0.63725 -0.0623,0.54154 -0.0192,0.73835 0.0252,0.68366 0.0196,0.61905 0.0802,0.71032 -0.0396,0.54997 -0.0331,0.61632 -0.0221,0.60971 -0.0532,0.727 0.0194,0.68736 -0.0107,0.63749 -0.0134,0.49446 -0.0128,0.80598 -0.0426,0.61852 -0.0818,0.53432 -0.0473,0.68902 -0.0427,0.70834 -0.0482,0.63309 -0.0682,0.61651 -0.0376,0.67773 -0.0292,0.64716 -0.0298,0.6442 -0.0214,0.65147 0.0531,0.70794 -0.0343,0.52759 -0.0588,0.69437 -0.0351,0.66071 -0.0814,0.58525 -0.0518,0.68318 -0.0343,0.65684 -0.0638,0.57882 -0.0351,0.70473 -0.0467,0.63525 -0.0715,0.60576 -0.0487,0.67437 -0.0285,0.66236 -0.0476,0.62677 0.001,0.66073 0.11869,0.69128 0.0176,0.66873 -0.0787,0.68508 -0.28186,0.52172 -0.63793,-0.0606 -0.48544,0.0894 -0.81048,-0.13445 -0.57348,0.0648 -0.53266,0.0583 -0.81659,0.0216 -0.61761,0.0198 -0.69852,9.1e-4 -0.62739,-0.0948 -0.37182,0.0854 -0.97169,-0.0549 -0.53542,0.0609 -0.74195,-0.0197 -0.63678,-0.004 -0.6135,0.0227 -0.66032,0.008 -0.44382,0.061 -0.891886,-0.062 -0.624099,-0.005 -0.638474,-0.0422 -0.660704,-0.0459 -0.641666,-0.0228 -0.619298,0.0103 -0.676377,-0.006 -0.554368,0.0308 -0.555425,0.0832 -0.828343,-0.0282 -0.659195,-0.0334 -0.456169,0.0734 -0.699172,0.0561 -0.684596,0.056 -0.521439,0.0728 -0.877697,-0.0323 -0.560462,0.0538 -0.710279,-1.5e-4 -0.495921,0.0494 -0.777279,0.003 -0.518376,0.08 -0.835994,-0.0748 -0.626769,-0.0244 -0.494582,0.0759 -0.752249,0.0168 -0.659724,-0.10542 -0.679581,-0.0546 -0.61995,-0.0548 -0.653892,-9e-5 -0.526748,0.0524 -0.788668,-0.0358 -0.642699,-0.14486 -0.643605,-0.14319 -0.569428,0.0222 -0.715395,-0.005 -0.529121,0.0848 -0.740889,-0.12436 -0.616443,0.0424 -0.532236,0.0753 -0.699402,0.0786 -0.772203,-0.0199 -0.501289,0.0678 -0.829474,-0.11455 -0.57323,0.008 -0.678622,-0.0129 -0.607405,0.0297 -0.674844,3.4e-4 -0.654347,-0.0154 -0.609794,0.0245 -0.641558,0.0143 -0.5491,0.0655 -0.715384,0.0238 -0.724131,-0.0284 -0.672115,-0.0738 -0.637079,-0.0692 -0.594899,0.0123 -0.672169,-0.001 -0.651857,-0.0557 -0.666327,-0.0465 -0.507833,0.0722 -0.784903,-0.042 -0.599062,0.0107 -0.70378,-0.0849 -0.469791,0.0716 -0.822613,-0.13269 -0.526205,0.0662 -0.733172,0.007 -0.674513,-0.14316 -0.629168,-0.006 -0.629599,-0.0488 -0.649755,0.016 -0.677457,-0.016 -0.664792,-0.0417 -0.571399,0.0393 -0.676939,0.0216 -0.65654,0.0105 -0.519049,0.0879 -0.822214,-0.0967 -0.562803,0.0303 -0.669878,-0.14708 -0.637975,0.051 -0.566828,0.0606 -0.755396,0.0137 -0.651311,0.003 -0.64786,-0.13058 -0.64672,0.0301 -0.627522,0.047 -0.657422,0.0333 -0.583654,0.0607 -0.731852,-0.036 -0.59008,0.06 -0.421763,0.10521 -0.903511,0.0155 -0.635974,0.0235 -0.654644,-0.0919 -0.615602,0.0866 -0.639968,0.0658 -0.689346,-0.005 0.03522,-0.62537 0.15821,-0.59073 0.02348,-0.70563 0.105906,-0.634 -0.02021,-0.70702 0.170576,-0.53886 -0.0097,-0.73328 0.09121,-0.56801 -0.01896,-0.83028 -0.0062,-0.53855 -0.03254,-0.7178 0.004,-0.56382 0.153341,-0.56682 -0.0057,-0.73554 -0.05518,-0.75788 -0.01728,-0.56707 0.01266,-0.59874 0.161889,-0.60174 -0.03549,-0.77659 0.01333,-0.57141 0.03024,-0.83763 -0.0061,-0.46612 0.113155,-0.60366 -0.0044,-0.68782 0.01595,-0.62444 0.04753,-0.63401 0.0086,-0.66738 0.04687,-0.61649 -0.01211,-0.69891 0.08356,-0.61469 -0.03131,-0.76012 0.01261,-0.54336 -0.04599,-0.75067 0.163845,-0.47928 -0.01505,-0.73803 -0.01409,-0.64689 -0.01137,-0.68242 0.24592,-0.52162 0.02292,-0.70628 -0.007,-0.68107 -0.05224,-0.71727 -0.04906,-0.69203 -0.0023,-0.52343 -0.01964,-0.66013 -0.02364,-0.65507 -0.02542,-0.64931 -0.01013,-0.66258 -0.04588,-0.71463 -0.01239,-0.54181 0.0333,-0.62803 -0.03067,-0.68619 -0.05374,-0.69452 0.05801,-0.54991 0.01351,-0.64627 -0.03657,-0.70006 -0.0489,-0.66566 -0.04084,-0.67128 0.240527,-0.50087 0.01269,-0.72079 0.01338,-0.63409 0.07478,-0.625 -0.03183,-0.73298 0.0078,-0.75292 0.07258,-0.45108 -0.01484,-0.69913 -0.05427,-0.70465 -0.02213,-0.63663 -0.01927,-0.60483 -0.05503,-0.73725 -0.02548,-0.56283 0.03972,-0.5997 0.114884,-0.62961 0.219742,-0.6496 -0.02306,-0.72094 0.04381,-0.6083 -0.06189,-0.73943 0.07535,-0.55536 -0.07962,-0.76355 -0.02052,-0.57658 0.0037,-0.84451 0.0303,-0.41472 0.107302,-0.65777 0.04889,-0.63596 -0.0761,-0.76496 -0.04989,-0.61123 -0.05338,-0.64677 -0.0826,-0.68106 0.113854,-0.53904 0.02788,-0.65072 -0.07559,-0.74559 -0.05725,-0.62183 0.153376,-0.56019 0.03233,-0.71768 -0.09971,-0.73911 -0.102103,-0.65038 -0.05969,-0.57829 -0.0096,-0.60333 -0.08722,-0.74209 0.102782,-0.53793 -0.09722,-0.72689 -0.08499,-0.68035 -0.04953,-0.56312 -0.128349,-0.76483 -0.02641,-0.49811 -0.101654,-0.69495 -0.0025,-0.56957 -0.157752,-0.80817 -0.07457,-0.54406 -0.09757,-0.66642 -0.0095,-0.54476 -0.124688,-0.85552 -0.07691,-0.45617 -0.06476,-0.6134 -0.16418,-0.68298 z"
           style="fill:#000000;stroke-width:1.04109;stroke-linecap:round;stroke-linejoin:round;stroke-miterlimit:12" />
        <g
           id="g14824-8-8"
           transform="matrix(1.0949117,0,0,1.0949117,-11.9477,-12.906422)">
          <g
             id="g15575-5-6">
            <path
               id="path12776-7-0"
               style="fill:#ffffff;stroke-width:1.64726;stroke-linecap:round;stroke-linejoin:round;stroke-miterlimit:12"
               d="m 133.85825,103.28714 -0.35503,0.30726 -0.64837,0.30475 -0.33649,0.29133 -0.48883,0.35758 -0.60934,0.33496 -0.50433,0.28331 -0.51943,0.27503 -0.50009,0.27891 -0.55273,0.24974 -0.44341,0.2914 -0.53618,0.29487 -0.50551,0.2806 -0.40908,0.32246 -0.62435,0.24626 -0.48449,0.27907 -0.34833,0.28578 -0.56766,0.348 -0.60759,0.24587 -0.53456,0.22509 -0.50884,0.27198 -0.5143,0.26729 -0.52589,0.26622 -0.36781,0.30291 -0.61347,0.31045 -0.50423,0.27025 -0.56401,0.16442 -0.48392,0.35183 -0.5363,0.2579 -0.40432,0.28342 -0.6359,0.28742 -0.54548,0.19885 -0.51321,0.26972 -0.52889,0.27251 -0.46296,0.30064 -0.56152,0.28559 -0.52624,0.0844 -0.56681,0.31399 -0.55649,0.22044 -0.50377,0.29591 -0.482,0.3083 -0.56353,0.28596 -0.49335,0.28226 -0.54931,0.27187 -0.54058,0.23444 -0.4139,0.26882 -0.63227,0.26783 -0.50686,0.27757 -0.48332,0.2937 -0.55175,0.28563 -0.30983,0.27781 -0.45295,0.37331 -0.6994,0.36086 -0.53935,0.26155 -0.41672,0.28933 -0.60548,0.29711 -0.52866,0.2595 -0.51592,0.26638 -0.34044,0.30034 -0.4667,0.36009 -0.70073,0.31787 -0.55252,0.17379 -0.54518,0.22388 -0.5269,0.26524 -0.5161,0.27017 -0.58867,0.21546 -0.540572,0.11963 -0.524108,0.2921 -0.467746,0.30282 -0.575158,0.28325 -0.54426,0.24709 -0.435119,0.29325 -0.548028,0.29573 -0.574891,0.11469 -0.580696,0.27676 -0.536217,0.2314 -0.583732,0.20554 -0.547977,0.20998 -0.466181,0.30876 -0.541656,0.26023 -0.436449,0.33312 -0.593074,0.27611 -0.5093,0.27118 0.339227,0.5231 0.340383,0.50072 0.328756,0.48291 0.331148,0.48082 0.246266,0.43061 0.278219,0.49376 0.314888,0.42718 0.397744,0.60849 0.415303,0.51443 0.312036,0.45129 0.253006,0.44737 0.282774,0.48954 0.40686,0.57465 0.244831,0.42727 0.477103,0.54995 0.238635,0.4128 0.276036,0.44923 0.448054,0.59961 0.24577,0.42733 0.363573,0.53824 0.275278,0.46477 0.403947,0.52899 0.431184,0.44088 0.259376,0.44638 0.209329,0.37807 0.322967,0.61996 0.277411,0.52455 0.21488,0.44776 0.36362,0.60953 0.23277,0.43643 0.29396,0.55943 0.21635,0.40632 0.30387,0.60617 0.40125,0.58961 0.24864,0.45878 0.25136,0.49902 0.25916,0.5131 0.33631,0.56344 0.23227,0.35799 0.25427,0.55691 0.28896,0.54607 0.49738,0.58673 0.25303,0.47726 0.2348,0.51051 0.19519,0.46765 0.33896,0.62398 0.23438,0.4972 0.0981,0.46415 0.51961,-0.3932 0.47725,-0.23818 0.61736,-0.20538 0.59523,-0.17806 0.41345,-0.25335 0.59871,-0.23353 0.51604,-0.41872 0.44364,-0.33766 0.47815,-0.25563 0.55046,-0.25366 0.57272,-0.22385 0.50186,-0.23643 0.56876,-0.22558 0.60357,-0.21657 0.4371,-0.33709 0.54003,-0.22239 0.51088,-0.32234 0.5317,-0.22642 0.49755,-0.27122 0.56672,-0.24139 0.51706,-0.24664 0.62757,-0.22399 0.44103,-0.3141 0.55759,-0.21799 0.75697,-0.19926 0.32948,-0.19002 0.68803,-0.19784 0.53307,-0.15466 0.46894,-0.20284 0.67203,-0.18803 0.55392,-0.17339 0.45316,-0.19833 0.70494,-0.22061 0.43277,-0.15833 0.51518,-0.22708 0.51824,-0.29563 0.4775,-0.34852 0.54617,-0.2416 0.49971,-0.27535 0.51129,-0.30582 0.56908,-0.3014 0.53567,-0.20651 0.70058,-0.17323 0.42272,-0.17446 0.53528,-0.22783 0.5652,-0.34496 0.75042,-0.16446 0.35572,-0.1176 0.53204,-0.2009 0.49121,-0.28317 0.62149,-0.16695 0.52766,-0.23314 0.57114,-0.0984 -0.24502,-0.50121 -0.0969,-0.5027 -0.22682,-0.5555 -0.3537,-0.62648 -0.25868,-0.57629 -0.25282,-0.50001 -0.21584,-0.40111 -0.19493,-0.47533 -0.29308,-0.55212 -0.15714,-0.47013 -0.33853,-0.59159 -0.27617,-0.49143 -0.24702,-0.48568 -0.20951,-0.49748 -0.34483,-0.57074 -0.26083,-0.46976 -0.24627,-0.48574 -0.36663,-0.57705 -0.2482,-0.42937 -0.34123,-0.54668 -0.19744,-0.41897 -0.37462,-0.65174 -0.12176,-0.33245 -0.19077,-0.50403 -0.55289,-0.5724 0.58597,-0.24951 0.60971,-0.23737 0.47633,-0.22097 0.53523,-0.2554 0.65789,-0.23826 0.38908,-0.25182 0.54579,-0.27839 0.49682,-0.40934 0.44083,-0.2875 0.54004,-0.30349 0.51958,-0.28742 0.4559,-0.34079 0.54383,-0.288 0.55861,-0.26729 0.47002,-0.3026 0.61287,-0.26584 0.47349,-0.36747 0.46956,-0.26579 0.56243,-0.25703 0.47167,-0.3911 0.51644,-0.25118 0.52919,-0.31365 0.59204,-0.19657 0.51737,-0.27285 0.50562,-0.21578 0.57566,-0.17106 -0.23944,-0.49241 -0.25428,-0.54479 -0.22816,-0.50159 -0.0798,-0.54573 -0.30432,-0.60046 -0.30539,-0.53847 -0.35234,-0.63174 -0.16947,-0.37979 -0.29713,-0.53108 -0.20856,-0.48623 -0.2326,-0.55022 -0.17638,-0.51755 -0.24436,-0.56856 -0.43138,-0.69758 -0.24613,-0.38651 -0.30023,-0.47872 -0.38819,-0.58784 -0.15096,-0.36798 -0.25606,-0.5237 -0.37415,-0.55694 -0.34254,-0.55931 -0.28818,-0.42539 -0.36467,-0.52693 -0.30932,-0.45863 -0.3176,-0.45668 -0.32735,-0.4766 z m -1.77846,3.8584 0.32594,0.33976 0.27545,0.30698 0.18037,0.23734 0.22026,0.25258 0.33034,0.33103 0.0569,0.24878 0.32067,0.35495 0.06,0.25195 0.12314,0.26392 0.1768,0.29895 0.0988,0.20827 0.18869,0.40711 0.12705,0.2378 0.44216,0.43116 0.0138,0.229 0.0284,0.25444 0.19827,0.36043 0.32428,0.35326 -0.0118,0.18173 -0.0258,0.25515 0.16052,0.38325 0.25188,0.45097 0.27881,0.51088 0.29034,0.4158 0.0677,0.27079 0.1335,0.33666 0.14596,0.34693 0.0994,0.30544 0.29307,0.33266 -0.38911,0.13152 -0.3975,0.12575 -0.26716,0.11579 -0.34367,0.0995 -0.37988,0.10603 -0.24741,0.15374 -0.18347,0.15992 -0.54942,0.12466 -0.25254,0.1876 -0.41026,0.0928 -0.271,0.40728 -0.31639,0.24155 -0.44783,0.21404 -0.36157,0.0604 -0.11479,0.27288 -0.32029,0.19605 -0.41801,0.09 -0.27626,0.20315 -0.24715,0.2475 -0.24246,0.20971 -0.32526,0.0359 -0.29037,0.24894 -0.35184,0.20961 -0.29659,0.15865 -0.32493,0.13658 -0.28179,0.12079 -0.18347,0.15699 -0.16994,0.20492 -0.67147,0.006 -0.26408,0.22043 -0.30169,0.21593 -0.20206,0.23849 -0.16877,0.35318 -0.14872,-0.41754 -0.24485,-0.46009 -0.23847,-0.45398 -0.0901,-0.27255 -0.30143,-0.46298 -0.29705,-0.51202 -0.11385,-0.23849 -0.0121,-0.20678 -0.24383,-0.41684 -0.23677,-0.27663 -0.25031,-0.40148 -0.15341,-0.2697 -0.18824,-0.47951 -0.20497,-0.40158 -0.2543,-0.50515 -0.26771,-0.38933 -0.0965,-0.2725 -0.20536,-0.27946 -0.14244,-0.2764 0.01,-0.29726 -0.11348,-0.33415 -0.54785,-0.40357 -0.26901,-0.46944 -0.1767,-0.30302 0.0132,-0.29303 0.19461,-0.20796 0.25905,-0.15678 0.36889,-0.17242 0.0311,-0.37398 0.51734,-0.0998 0.25617,-0.10074 0.22623,-0.2249 0.27339,-0.12319 0.26356,-0.22509 0.24756,-0.24412 0.38144,-0.16122 0.4323,-0.10391 0.48341,-0.25601 0.27145,-0.19488 0.35381,-0.13876 0.37814,-0.1717 0.40329,-0.15258 0.4036,-0.30729 0.28018,-0.19973 0.28603,-0.20137 0.36832,-0.12125 0.28801,-0.13826 0.40103,-0.14958 0.23882,-0.23534 0.21277,-0.26417 0.28783,-0.15934 0.30732,-0.13511 0.39221,-0.0678 0.21852,-0.22584 0.31127,-0.15405 0.39114,-0.16957 z"
               sodipodi:nodetypes="ccccccccccccccccccccccccccccccccccccccccccccccccccccccccccccccccccccccccc" />
            <path
               style="fill:#ffffff;stroke-width:1.10193;stroke-linecap:round;stroke-linejoin:round;stroke-miterlimit:12"
               d="m 95.021329,121.01272 c 0,0 -0.129368,-0.0973 -0.158014,-0.11867 -0.06989,-0.0811 -0.07666,-0.11824 -0.09989,-0.13538 -0.07737,-0.11857 -0.01757,-0.0476 -0.07044,-0.0859 -0.02378,-0.0513 -0.172702,-0.13652 -0.301723,-0.22737 -0.08474,-0.0714 -0.285198,-0.29898 -0.418788,-0.39066 -0.151948,-0.20442 -0.191164,-0.13133 -0.297816,-0.20293 -0.140988,-0.0955 -0.31707,-0.21303 -0.482779,-0.32087 -0.173169,-0.11466 -0.283196,-0.20352 -0.456863,-0.31299 -0.148215,-0.11341 -0.361657,-0.23111 -0.566929,-0.35559 -0.17621,-0.11162 -0.40888,-0.24568 -0.622886,-0.37011 -0.206672,-0.12034 -0.24736,-0.19531 -0.46342,-0.31535 -0.09513,-0.10252 -0.477178,-0.27354 -0.755543,-0.4182 -0.184786,-0.10689 -0.534865,-0.30205 -0.787146,-0.42444 -0.258009,-0.15477 -0.455313,-0.2241 -0.674838,-0.32339 -0.252143,-0.12139 -0.39504,-0.18957 -0.627593,-0.28598 -0.195758,-0.0937 -0.587968,-0.28204 -0.851823,-0.37887 -0.279439,-0.14972 -0.461138,-0.18521 -0.677166,-0.25472 -0.258857,-0.10518 -0.392899,-0.11259 -0.62135,-0.17354 -0.195956,-0.0407 -0.527599,-0.13217 -0.787097,-0.18286 -0.235377,-0.0462 -0.445293,-0.0709 -0.673964,-0.0985 -0.213658,-0.0162 -0.46755,-0.0691 -0.694727,-0.0762 -0.218688,-0.0292 -0.475002,-0.11643 -0.683764,-0.10106 -0.243738,-0.0985 -0.26413,0.0691 -0.453492,0.10934 -0.10113,0.0767 -0.492429,0.0958 -0.712115,0.1847 -0.198993,0.0457 -0.319522,0.15658 -0.475984,0.25065 -0.145646,0.10257 -0.374125,0.11632 -0.518424,0.23876 -0.209745,0.0368 -0.274446,0.27164 -0.39735,0.43414 -0.110007,0.15757 -0.227163,0.32813 -0.324698,0.51432 -0.09889,0.18641 -0.239228,0.28244 -0.315864,0.49543 -0.0799,0.22206 -0.01666,0.57366 -0.07361,0.81876 -0.05673,0.24414 -0.101496,0.46908 -0.120904,0.6875 -0.02691,0.21485 0.02928,0.45525 0.04541,0.65108 0.06489,0.2066 0.06587,0.36335 0.10894,0.52334 0.06517,0.17505 0.333877,0.33873 0.404356,0.48081 0.283742,0.12783 0.08106,0.17978 0.144931,0.2726 0.06681,0.1164 0.292056,0.26882 0.412624,0.38527 0.190297,0.10245 0.163864,0.0764 0.281058,0.15995 0.116666,0.005 0.425078,0.24652 0.616748,0.33844 0.225079,0.0945 0.284553,0.12584 0.439023,0.18114 0.182561,0.064 0.518438,0.12663 0.722922,0.17685 0.299344,0.0418 0.306231,0.004 0.479668,0.0345 0.202875,-0.0311 0.49081,0.0804 0.734599,0.10488 0.247485,0.0308 0.67282,0.04 0.905902,0.0504 0.391162,0.009 0.296901,-0.0401 0.471106,-0.0383 0.217027,-0.0497 0.519545,-0.0197 0.788885,-0.0288 0.24544,-0.0275 0.50073,-0.0337 0.760161,-0.0516 0.245367,-0.0294 0.658103,-0.0345 0.918492,-0.0602 0.347871,-0.0152 0.392945,-0.0737 0.601554,-0.0989 0.233247,-0.0612 0.517988,-0.068 0.773725,-0.10493 0.246289,-0.0377 0.475165,-0.0908 0.716333,-0.13042 0.226629,-0.0572 0.446167,-0.11541 0.681916,-0.15819 0.20079,-0.077 0.467995,-0.11627 0.697369,-0.16068 0.20928,-0.0704 0.437763,-0.0818 0.643484,-0.12314 0.206852,-0.0378 0.382252,-0.16508 0.56827,-0.20371 0.171824,-0.1234 0.33462,-0.11832 0.502883,-0.15124 0.146861,-0.0784 0.402078,-0.0631 0.5572,-0.0892 0.184657,-0.0197 0.217731,-0.0649 0.324633,-0.0812 0.106941,-0.0452 0.271709,-0.0257 0.374936,-0.0366 0.108265,10e-5 0.227486,0.01 0.28902,0.004 0.10539,0.0225 0.0695,-0.0155 0.09024,-0.0215 0.0451,-0.013 0.110621,-0.005 0.110621,-0.005 z"
               id="path13662-4-4" />
          </g>
        </g>
      </g>
    </g>
  </g>
</svg>
